<?xml version="1.0" encoding="utf-8"?>
<!-- Generator: Adobe Illustrator 27.7.0, SVG Export Plug-In . SVG Version: 6.00 Build 0)  -->
<svg version="1.1" id="Layer_1" xmlns="http://www.w3.org/2000/svg" xmlns:xlink="http://www.w3.org/1999/xlink" x="0px" y="0px"
	 viewBox="0 0 530.54 144.43" style="enable-background:new 0 0 530.54 144.43;" xml:space="preserve">
<style type="text/css">
	.st0{fill:#F1F2F2;stroke:#D1D3D4;stroke-width:7;stroke-miterlimit:10;}
	.st1{fill:none;stroke:#D1D3D4;stroke-width:13;stroke-miterlimit:10;}
</style>
<ellipse class="st0" cx="101.88" cy="100.78" rx="40.75" ry="38.64"/>
<ellipse class="st0" cx="416.2" cy="100.78" rx="40.75" ry="38.64"/>
<polyline class="st1" points="144.65,125.34 345.45,126.42 370.48,119.08 "/>
<path class="st1" d="M469.68,48.18c-1.95-1.3,35.72,23.41,26.04,41.68c-8.88,16.76-25.98,21.73-29.23,22.1"/>
<path class="st1" d="M56.98,126.18l-36.1-2.5l11.01-19.2c-3.24-13.63-6.48-27.26-9.72-40.9c-0.43-1.81-0.86-3.62-1.29-5.43"/>
<path class="st1" d="M225.15,46.25c-55.36,0.49-110.72,0.97-166.07,1.46c-13.32,4.31-28.43,13.62-41.75,17.94"/>
<polyline class="st1" points="469.68,48.18 390.23,19.07 302.01,13.84 223.65,46.79 "/>
<polyline class="st1" points="470.18,29.83 501.01,24.79 521.25,21.49 "/>
<line class="st1" x1="484.69" y1="58.14" x2="505.87" y2="24"/>
</svg>
